<svg xmlns="http://www.w3.org/2000/svg" xmlns:xlink="http://www.w3.org/1999/xlink" width="189" height="33.408" viewBox="0 0 189 33.408">
  <defs>
    <linearGradient id="linear-gradient" y1="0.5" x2="1" y2="0.5" gradientUnits="objectBoundingBox">
      <stop offset="0" stop-color="#ff6d5c"/>
      <stop offset="1" stop-color="#f86453"/>
    </linearGradient>
  </defs>
  <g id="Logo" transform="translate(-68.003 -471.769)">
    <g id="Grupo_4" data-name="Grupo 4" transform="translate(106.198 480.479)">
      <path id="Trazado_14" data-name="Trazado 14" d="M275.9,520.377h0a1.783,1.783,0,0,1-2.338.1,7.409,7.409,0,0,0-4.69-1.692,6.384,6.384,0,0,0-6.473,6.473,6.808,6.808,0,0,0,.828,3.385,5.941,5.941,0,0,0,2.344,2.322,6.8,6.8,0,0,0,3.366.843,6.935,6.935,0,0,0,2.887-.59,7.937,7.937,0,0,0,1.653-1.049,1.784,1.784,0,0,1,2.407.14h0a1.771,1.771,0,0,1-.159,2.6,11.129,11.129,0,0,1-2.559,1.585,10.9,10.9,0,0,1-4.289.8,9.875,9.875,0,0,1-7.276-2.818,9.758,9.758,0,0,1-2.832-7.224,9.887,9.887,0,0,1,1.289-5.066,9.582,9.582,0,0,1,3.694-3.564,10.41,10.41,0,0,1,5.177-1.348,11.015,11.015,0,0,1,6.9,2.458A1.771,1.771,0,0,1,275.9,520.377Z" transform="translate(-258.774 -515.273)" fill="#fff"/>
      <path id="Trazado_15" data-name="Trazado 15" d="M368.8,540.645a7.472,7.472,0,0,1,3.752,1,7.244,7.244,0,0,1,3.124,3.469,7.092,7.092,0,0,1,.58,2.349,7.458,7.458,0,0,1-.97,4.315,7.152,7.152,0,0,1-2.7,2.715,7.439,7.439,0,0,1-3.675.978,7.356,7.356,0,0,1-5.273-2.157,7.474,7.474,0,0,1,.279-10.749A7.078,7.078,0,0,1,368.8,540.645Zm.059,3.331a3.641,3.641,0,0,0-2.746,1.147,4.072,4.072,0,0,0-1.1,2.935,4.145,4.145,0,0,0,1.084,2.98,3.625,3.625,0,0,0,2.745,1.141,3.668,3.668,0,0,0,2.765-1.153,4.546,4.546,0,0,0,.02-5.916A3.667,3.667,0,0,0,368.854,543.976Z" transform="translate(-340.922 -535.565)" fill="#fff"/>
      <path id="Trazado_16" data-name="Trazado 16" d="M449.64,541.008h3.537v1.62a6.042,6.042,0,0,1,2.017-1.49,5.9,5.9,0,0,1,2.419-.492,4.5,4.5,0,0,1,2.386.648,4.688,4.688,0,0,1,1.712,1.892,5.714,5.714,0,0,1,2.068-1.892,5.642,5.642,0,0,1,2.677-.648,4.96,4.96,0,0,1,2.645.7,4.043,4.043,0,0,1,1.641,1.827,9.765,9.765,0,0,1,.5,3.667v6.485a1.782,1.782,0,0,1-1.782,1.782h0a1.782,1.782,0,0,1-1.782-1.782v-5.371a6.126,6.126,0,0,0-.6-3.246,2.043,2.043,0,0,0-1.788-.848,2.714,2.714,0,0,0-1.626.518,3.063,3.063,0,0,0-1.069,1.432,8.915,8.915,0,0,0-.35,2.935v4.581a1.782,1.782,0,0,1-1.782,1.782h0a1.782,1.782,0,0,1-1.782-1.782v-5.047a9.61,9.61,0,0,0-.28-2.741,2.482,2.482,0,0,0-.838-1.264,2.205,2.205,0,0,0-1.356-.414,2.7,2.7,0,0,0-1.337.354,3.06,3.06,0,0,0-1.34,1.641,9.083,9.083,0,0,0-.358,2.98v4.5a1.769,1.769,0,0,1-1.769,1.769h0a1.769,1.769,0,0,1-1.769-1.769Z" transform="translate(-411.426 -535.565)" fill="#fff"/>
      <path id="Trazado_17" data-name="Trazado 17" d="M577.871,541.008v1.555a6.651,6.651,0,0,1,2.073-1.438,5.971,5.971,0,0,1,2.384-.48,6.154,6.154,0,0,1,4.691,2.086,7.567,7.567,0,0,1,1.931,5.351,7.387,7.387,0,0,1-2,5.268,6.285,6.285,0,0,1-4.729,2.118,5.87,5.87,0,0,1-2.267-.434,6.911,6.911,0,0,1-2.087-1.419v4.892a1.756,1.756,0,0,1-1.756,1.756h0a1.756,1.756,0,0,1-1.756-1.756v-17.5Zm3.719,2.9a3.694,3.694,0,0,0-2.773,1.141,4.11,4.11,0,0,0-1.1,2.981,4.229,4.229,0,0,0,1.1,3.038,3.83,3.83,0,0,0,5.214.259,4.584,4.584,0,0,0,.306-6.258A3.607,3.607,0,0,0,581.589,543.91Z" transform="translate(-511.175 -535.565)" fill="#fff"/>
      <path id="Trazado_18" data-name="Trazado 18" d="M663.588,542.457h0a1.788,1.788,0,0,1,1.788,1.789v5a9.394,9.394,0,0,0,.273,2.753,2.4,2.4,0,0,0,.877,1.2,2.51,2.51,0,0,0,1.487.428,2.6,2.6,0,0,0,1.5-.421,2.471,2.471,0,0,0,.916-1.238,9.493,9.493,0,0,0,.221-2.6v-5.138a1.769,1.769,0,0,1,1.769-1.769h0a1.769,1.769,0,0,1,1.769,1.769v4.205a14.65,14.65,0,0,1-.583,5.054,5.511,5.511,0,0,1-2.1,2.546,6.429,6.429,0,0,1-3.525.888,6.253,6.253,0,0,1-3.751-1.036,5.474,5.474,0,0,1-2.015-2.89,17.5,17.5,0,0,1-.415-4.665v-4.082A1.788,1.788,0,0,1,663.588,542.457Z" transform="translate(-581.108 -537.014)" fill="#fff"/>
      <path id="Trazado_19" data-name="Trazado 19" d="M746.953,541.008h1.853v2.061a6.512,6.512,0,0,1,1.749-1.821,3.452,3.452,0,0,1,1.918-.6,3.314,3.314,0,0,1,1.607.48l-.946,1.529a2.526,2.526,0,0,0-.959-.246,2.622,2.622,0,0,0-1.749.745,4.705,4.705,0,0,0-1.283,2.313,22.152,22.152,0,0,0-.337,4.872v3.842a.927.927,0,0,1-.927.927h0a.926.926,0,0,1-.927-.927Z" transform="translate(-649.213 -535.565)" fill="#fff"/>
      <path id="Trazado_20" data-name="Trazado 20" d="M807.912,550.806h0a.891.891,0,0,1,.339,1.259,7.592,7.592,0,0,1-1.266,1.551,6.9,6.9,0,0,1-2.218,1.38,7.744,7.744,0,0,1-2.789.473,6.738,6.738,0,0,1-5.4-2.261,7.628,7.628,0,0,1-1.946-5.112,7.536,7.536,0,0,1,1.647-4.782,6.734,6.734,0,0,1,5.59-2.669,6.954,6.954,0,0,1,5.758,2.734,7.635,7.635,0,0,1,1.557,4.82H796.5a5.74,5.74,0,0,0,1.57,4.028,5.007,5.007,0,0,0,3.749,1.571,6.017,6.017,0,0,0,2.095-.374,5.5,5.5,0,0,0,1.732-.994,6.85,6.85,0,0,0,1.117-1.329A.888.888,0,0,1,807.912,550.806Zm-.719-4.174a6.012,6.012,0,0,0-1.057-2.319,5.119,5.119,0,0,0-2.076-1.505,5.559,5.559,0,0,0-1.988-.424,5.2,5.2,0,0,0-3.741,1.332,6.031,6.031,0,0,0-1.647,2.916Z" transform="translate(-687.35 -535.565)" fill="#fff"/>
      <path id="Trazado_21" data-name="Trazado 21" d="M892.022,541.008h1.815v2.527a7.584,7.584,0,0,1,2.41-2.171,5.93,5.93,0,0,1,2.877-.719,5,5,0,0,1,2.8.8,4.784,4.784,0,0,1,1.808,2.164,11.435,11.435,0,0,1,.583,4.237v6.35a.907.907,0,0,1-.907.907h0a.907.907,0,0,1-.907-.907v-5.818a16.593,16.593,0,0,0-.2-3.253,3.575,3.575,0,0,0-1.21-2.106,3.652,3.652,0,0,0-2.333-.706,4.473,4.473,0,0,0-2.948,1.089A5.1,5.1,0,0,0,894.1,546.1a18.782,18.782,0,0,0-.259,3.836V554.2a.907.907,0,0,1-.907.907h0a.907.907,0,0,1-.907-.907Z" transform="translate(-765.237 -535.565)" fill="#fff"/>
      <path id="Trazado_22" data-name="Trazado 22" d="M978.682,516.309H980.5v5.235h2.876v1.568H980.5v11.623a.907.907,0,0,1-.907.907h0a.907.907,0,0,1-.907-.907V523.112h-2.475v-1.568h2.475Z" transform="translate(-832.567 -516.102)" fill="#fff"/>
    </g>
    <path id="Trazado_23" data-name="Trazado 23" d="M100.751,477.09a5.766,5.766,0,0,0-1.779-.249,7.85,7.85,0,0,0-6.647,3.579c-1.756,2.711-1.081,4.289-1.441,7.583a6.78,6.78,0,0,1-.245,1.042s-.081.254-.3.827a2.913,2.913,0,0,1-.213.471,8.1,8.1,0,0,1-2.731,3.273,8.615,8.615,0,0,1-4.563,1.587c-.149.008-.3.012-.452.012a8.1,8.1,0,0,1-5.436-1.917,8.656,8.656,0,0,1-3.235-6.661c0-.032,0-.064,0-.1a8.668,8.668,0,0,1,7.928-8.64l0,.017a8.591,8.591,0,0,1,4.653.961c.049.029.1.056.149.083l.01.006h0a3.075,3.075,0,0,0,2.967-5.385l0-.009a14.272,14.272,0,0,0-5.647-1.726c-.1-.015-.165-.02-.177-.022-.4-.033-.8-.055-1.21-.055A14.38,14.38,0,1,0,96.22,490.181c.913-3.15.095-4.48,1.507-6.11a3.6,3.6,0,0,1,2.245-1.206,3,3,0,0,0,.78-5.775Z" transform="translate(0 0)" fill="url(#linear-gradient)"/>
  </g>
</svg>
